mtllib camera.mtl
o Camera
v 0.000000 2.052328 1.408262
v 0.000000 2.001761 1.408262
v -0.175232 2.052328 1.335678
v -0.175232 2.001761 1.335678
v -0.247815 2.052328 1.160447
v -0.247815 2.001761 1.160447
v -0.175232 2.052328 0.985215
v -0.175232 2.001761 0.985215
v 0.000000 2.052328 0.912632
v 0.000000 2.001761 0.912632
v 0.175232 2.052328 0.985215
v 0.175232 2.001761 0.985215
v 0.247815 2.052328 1.160447
v 0.247815 2.001761 1.160447
v 0.175232 2.052328 1.335678
v 0.175232 2.001761 1.335678
v 0.000000 2.138269 1.277246
v 0.000000 2.009942 1.277246
v -0.082590 2.138269 1.243036
v -0.082590 2.009942 1.243036
v -0.116799 2.138269 1.160447
v -0.116799 2.009942 1.160447
v -0.082590 2.138269 1.077857
v -0.082590 2.009942 1.077857
v 0.000000 2.138269 1.043647
v 0.000000 2.009942 1.043647
v 0.082590 2.138269 1.077857
v 0.082590 2.009942 1.077857
v 0.116799 2.138269 1.160447
v 0.116799 2.009942 1.160447
v 0.082590 2.138269 1.243036
v 0.082590 2.009942 1.243036
v 0.432989 0.950000 -0.862466
v 0.885496 0.950000 -0.862466
v 0.432989 0.340145 -0.609855
v 0.885496 0.340145 -0.609855
v 0.432989 0.087534 0.000000
v 0.885496 0.087534 0.000000
v 0.432989 0.340145 0.609855
v 0.885496 0.340145 0.609855
v 0.432989 0.950000 0.862466
v 0.885496 0.950000 0.862466
v 0.432989 1.559855 0.609855
v 0.885496 1.559855 0.609855
v 0.432989 1.812466 0.000000
v 0.885496 1.812466 0.000000
v 0.432989 1.559855 -0.609855
v 0.885496 1.559855 -0.609855
v 0.833121 0.950000 -0.790979
v 0.833121 0.390693 -0.559307
v 0.833121 0.159021 0.000000
v 0.833121 0.390693 0.559307
v 0.833121 0.950000 0.790979
v 0.833121 1.509307 0.559307
v 0.833121 1.740979 0.000000
v 0.833121 1.509307 -0.559307
v 0.457174 -0.010254 -1.581706
v 0.457174 -0.010254 1.581706
v -0.457174 -0.010254 1.581705
v -0.457174 -0.010254 -1.581706
v 0.457174 2.010254 -1.581705
v 0.457174 2.010254 1.581707
v -0.457174 2.010254 1.581705
v -0.457174 2.010254 -1.581706
v 0.457174 2.010254 0.632682
v -0.457174 2.010254 0.632682
v 0.457174 2.010254 -0.632682
v -0.457174 2.010254 -0.632682
v 0.248903 2.528540 0.632682
v -0.457174 2.528540 0.621502
v 0.248903 2.528540 -0.632682
v -0.457174 2.528540 -0.632682
vn -0.3827 -0.0000 0.9239
vn -0.9239 -0.0000 0.3827
vn -0.9239 -0.0000 -0.3827
vn -0.3827 -0.0000 -0.9239
vn 0.3827 -0.0000 -0.9239
vn 0.9239 -0.0000 -0.3827
vn -0.0000 -1.0000 -0.0000
vn 0.3827 -0.0000 0.9239
vn 0.9239 -0.0000 0.3827
vn -0.0000 1.0000 -0.0000
vn -0.0000 -0.3827 -0.9239
vn -0.0000 -0.9239 -0.3827
vn -0.0000 -0.9239 0.3827
vn -0.0000 -0.3827 0.9239
vn -0.0000 0.3827 0.9239
vn -0.0000 0.9239 0.3827
vn 0.7835 -0.2378 0.5741
vn -0.0000 0.3827 -0.9239
vn -0.0000 0.9239 -0.3827
vn -1.0000 -0.0000 -0.0000
vn 1.0000 -0.0000 -0.0000
vn 0.7835 -0.5741 0.2378
vn 0.7835 -0.5741 -0.2378
vn 0.7835 -0.2378 -0.5741
vn 0.7835 0.2378 -0.5741
vn 0.7835 0.5741 -0.2378
vn 0.7835 0.5741 0.2378
vn 0.7835 0.2378 0.5741
vn -0.0000 -0.0000 1.0000
vn -0.0000 -0.0000 -1.0000
vn 0.9279 0.3729 -0.0000
vn -0.0158 0.0216 0.9996
vt 0.948446 0.367818
vt 0.960668 0.387735
vt 0.948446 0.387735
vt 0.960668 0.347900
vt 0.948446 0.327975
vt 0.960668 0.327983
vt 0.948446 0.347892
vt 0.936223 0.327983
vt 0.960668 0.367818
vt 0.948449 0.347900
vt 0.960668 0.347901
vt 0.948449 0.367818
vt 0.936223 0.347901
vt 0.936223 0.387735
vt 0.948446 0.407652
vt 0.936223 0.407652
vt 0.958808 0.125788
vt 0.936223 0.120399
vt 0.945578 0.107387
vt 0.936223 0.367818
vt 0.960668 0.407652
vt 0.958808 0.088986
vt 0.968162 0.101998
vt 0.941984 0.226884
vt 0.947744 0.277429
vt 0.941984 0.277429
vt 0.947744 0.176338
vt 0.941984 0.125788
vt 0.947744 0.125792
vt 0.941984 0.176334
vt 0.936223 0.125792
vt 0.947744 0.226883
vt 0.941985 0.176338
vt 0.947744 0.176338
vt 0.941985 0.226883
vt 0.936223 0.176338
vt 0.936223 0.277429
vt 0.941984 0.327975
vt 0.936223 0.327975
vt 0.940632 0.425630
vt 0.936223 0.419497
vt 0.946867 0.416957
vt 0.936223 0.226884
vt 0.947744 0.327975
vt 0.936223 0.414417
vt 0.940632 0.408284
vt 0.951276 0.410824
vt 0.872446 0.099498
vt 0.840883 0.339708
vt 0.872446 0.339708
vt 0.872446 0.000000
vt 0.840883 0.099498
vt 0.840852 0.579920
vt 0.809320 0.679416
vt 0.840883 0.679416
vt 0.840840 0.339711
vt 0.809289 0.579920
vt 0.840852 0.099500
vt 0.809277 0.339711
vt 0.840883 0.000000
vt 0.809289 0.099500
vt 0.561513 0.337940
vt 0.598786 0.118346
vt 0.596722 0.098374
vt 0.872446 0.579917
vt 0.840883 0.579917
vt 0.840883 0.679416
vt 0.872446 0.679416
vt 0.526305 0.580435
vt 0.561513 0.100444
vt 0.476513 0.098375
vt 0.676741 0.340739
vt 0.644451 0.028126
vt 0.566496 0.338055
vt 0.646514 0.000000
vt 0.681722 0.100444
vt 0.676741 0.120244
vt 0.681722 0.340867
vt 0.644451 0.560448
vt 0.646514 0.580432
vt 0.598786 0.650668
vt 0.596722 0.678807
vt 0.561513 0.578363
vt 0.566496 0.558550
vt 0.872446 0.535407
vt 0.936223 0.408284
vt 0.872446 0.408284
vt 0.936223 0.573545
vt 0.872446 0.535408
vt 0.872446 0.573545
vt 0.220652 1.000000
vt 0.154456 0.204166
vt 0.066196 0.204166
vt 0.745500 0.000000
vt 0.809277 0.795837
vt 0.809277 0.000000
vt 0.441304 0.999980
vt 0.375109 0.204142
vt 0.286848 0.204142
vt 0.745500 0.795837
vt 0.681722 0.000000
vt 0.681723 0.795837
vt 0.886973 0.204142
vt 0.936223 0.000000
vt 0.872446 0.000000
vt 1.000000 0.050849
vt 0.936223 0.088986
vt 1.000000 0.088986
vt 0.985473 0.050849
vt 0.936223 0.000449
vt 0.936223 0.050849
vt 0.287628 0.000000
vt 0.936223 0.408284
vt 0.886972 0.204142
vt 0.872446 0.408284
vt 0.154456 0.000000
vt 0.936223 0.347900
vt 0.936223 0.367818
vt 0.958808 0.107387
vt 0.968162 0.112777
vt 0.968162 0.120399
vt 0.945578 0.125788
vt 0.936223 0.112777
vt 0.936223 0.101998
vt 0.936223 0.094376
vt 0.945578 0.088986
vt 0.968162 0.094376
vt 0.947744 0.226884
vt 0.936223 0.176338
vt 0.936223 0.226883
vt 0.951276 0.419497
vt 0.951276 0.423090
vt 0.946867 0.425630
vt 0.936223 0.423090
vt 0.940632 0.416957
vt 0.951276 0.414417
vt 0.946867 0.416957
vt 0.940632 0.416957
vt 0.936223 0.410824
vt 0.946867 0.408284
vt 0.809320 0.000000
vt 0.441304 0.337942
vt 0.441304 0.578366
vt 0.476513 0.678810
vt 0.561513 0.340868
vt 0.526305 0.000000
vt 0.936223 0.535408
vt 0.936223 0.535408
vt 0.000000 0.204166
vt 0.000000 1.000000
vt 0.220652 0.204166
vt 0.745500 0.795837
vt 0.220652 0.204142
vt 0.220652 0.999980
vt 0.441304 0.204142
vt 0.745499 0.000000
vt 0.936223 0.204142
vt 0.936223 0.050849
vt 0.985473 0.000000
vt 0.375109 0.000000
vt 0.936223 0.204142
vt 0.066195 0.000000
s 0
usemtl DSLR
f 2/1/1 1/3/1 3/2/1
f 4/4/2 3/6/2 5/5/2
f 6/7/3 5/5/3 7/8/3
f 8/9/4 7/11/4 9/10/4
f 10/12/5 9/10/5 11/13/5
f 12/14/6 11/16/6 13/15/6
f 14/17/7 6/19/7 10/18/7
f 16/20/8 15/14/8 1/3/8
f 14/3/9 13/15/9 15/21/9
f 7/22/10 15/19/10 11/23/10
f 18/24/1 17/26/1 19/25/1
f 20/27/2 19/29/2 21/28/2
f 22/30/3 21/28/3 23/31/3
f 24/32/4 23/34/4 25/33/4
f 26/35/5 25/33/5 27/36/5
f 28/37/6 27/39/6 29/38/6
f 30/40/7 22/42/7 26/41/7
f 32/43/8 31/37/8 17/26/8
f 30/26/9 29/38/9 31/44/9
f 23/45/10 31/47/10 27/46/10
f 35/48/11 33/50/11 34/49/11
f 37/51/12 35/48/12 36/52/12
f 39/53/13 37/55/13 38/54/13
f 41/56/14 39/53/14 40/57/14
f 43/58/15 41/56/15 42/59/15
f 45/60/16 43/58/16 44/61/16
f 34/62/17 48/64/17 56/63/17
f 47/65/18 48/66/18 34/49/18
f 47/65/19 45/68/19 46/67/19
f 43/69/20 35/71/20 39/70/20
f 53/72/21 49/74/21 55/73/21
f 48/64/22 46/75/22 55/73/22
f 55/73/23 46/75/23 44/76/23
f 54/77/24 44/76/24 42/78/24
f 42/78/25 40/80/25 52/79/25
f 40/80/26 38/82/26 51/81/26
f 51/81/27 38/82/27 36/83/27
f 50/84/28 36/83/28 34/62/28
f 57/85/7 58/87/7 59/86/7
f 65/88/10 66/90/10 63/89/10
f 58/91/21 67/93/21 65/92/21
f 59/94/29 58/96/29 62/95/29
f 60/97/20 66/99/20 68/98/20
f 64/100/30 61/102/30 57/101/30
f 71/103/30 67/105/30 68/104/30
f 67/106/10 61/108/10 64/107/10
f 71/109/10 72/111/10 70/110/10
f 68/98/20 66/99/20 70/112/20
f 66/113/29 65/115/29 69/114/29
f 69/116/31 65/92/31 67/93/31
f 2/1/1 3/2/1 4/9/1
f 4/4/2 5/5/2 6/7/2
f 6/7/3 7/8/3 8/117/3
f 8/9/4 9/10/4 10/12/4
f 10/12/5 11/13/5 12/118/5
f 12/14/6 13/15/6 14/3/6
f 6/19/7 2/120/7 4/119/7
f 2/120/7 14/17/7 16/121/7
f 14/17/7 10/18/7 12/122/7
f 10/18/7 6/19/7 8/123/7
f 6/19/7 14/17/7 2/120/7
f 16/20/8 1/3/8 2/1/8
f 14/3/9 15/21/9 16/2/9
f 15/19/10 3/125/10 1/124/10
f 3/125/10 7/22/10 5/126/10
f 7/22/10 11/23/10 9/127/10
f 11/23/10 15/19/10 13/119/10
f 15/19/10 7/22/10 3/125/10
f 18/24/1 19/25/1 20/128/1
f 20/27/2 21/28/2 22/30/2
f 22/30/3 23/31/3 24/129/3
f 24/32/4 25/33/4 26/35/4
f 26/35/5 27/36/5 28/130/5
f 28/37/6 29/38/6 30/26/6
f 22/42/7 18/132/7 20/131/7
f 18/132/7 30/40/7 32/133/7
f 30/40/7 26/41/7 28/134/7
f 26/41/7 22/42/7 24/135/7
f 22/42/7 30/40/7 18/132/7
f 32/43/8 17/26/8 18/24/8
f 30/26/9 31/44/9 32/25/9
f 31/47/10 19/137/10 17/136/10
f 19/137/10 23/45/10 21/138/10
f 23/45/10 27/46/10 25/139/10
f 27/46/10 31/47/10 29/140/10
f 31/47/10 23/45/10 19/137/10
f 35/48/11 34/49/11 36/52/11
f 37/51/12 36/52/12 38/60/12
f 39/53/13 38/54/13 40/57/13
f 41/56/14 40/57/14 42/59/14
f 43/58/15 42/59/15 44/61/15
f 45/60/16 44/61/16 46/141/16
f 34/62/17 56/63/17 49/74/17
f 47/65/18 34/49/18 33/50/18
f 47/65/19 46/67/19 48/66/19
f 35/71/20 47/143/20 33/142/20
f 47/143/20 43/69/20 45/144/20
f 43/69/20 39/70/20 41/145/20
f 39/70/20 35/71/20 37/146/20
f 35/71/20 43/69/20 47/143/20
f 49/74/21 51/81/21 50/84/21
f 51/81/21 53/72/21 52/79/21
f 53/72/21 55/73/21 54/77/21
f 55/73/21 49/74/21 56/63/21
f 49/74/21 53/72/21 51/81/21
f 48/64/22 55/73/22 56/63/22
f 55/73/23 44/76/23 54/77/23
f 54/77/24 42/78/24 53/72/24
f 42/78/25 52/79/25 53/72/25
f 40/80/26 51/81/26 52/79/26
f 51/81/27 36/83/27 50/84/27
f 50/84/28 34/62/28 49/74/28
f 57/85/7 59/86/7 60/147/7
f 65/88/10 63/89/10 62/148/10
f 61/149/21 58/91/21 57/150/21
f 58/91/21 65/92/21 62/151/21
f 67/93/21 58/91/21 61/149/21
f 59/94/29 62/95/29 63/152/29
f 63/153/20 60/97/20 59/154/20
f 60/97/20 68/98/20 64/155/20
f 66/99/20 60/97/20 63/153/20
f 64/100/30 57/101/30 60/156/30
f 71/103/30 68/104/30 72/157/30
f 67/106/10 64/107/10 68/158/10
f 71/109/10 70/110/10 69/159/10
f 68/98/20 70/112/20 72/160/20
f 66/113/32 69/114/32 70/161/32
f 69/116/31 67/93/31 71/162/31
